<?xml version="1.0" standalone="no"?><!DOCTYPE svg PUBLIC "-//W3C//DTD SVG 1.1//EN" "http://www.w3.org/Graphics/SVG/1.1/DTD/svg11.dtd"><svg t="1506157914939" class="icon" style="" viewBox="0 0 1024 1024" version="1.1" xmlns="http://www.w3.org/2000/svg" p-id="4620" xmlns:xlink="http://www.w3.org/1999/xlink" width="40" height="40"><defs><style type="text/css"></style></defs><path d="M747.476958 978.70359H237.672767c-47.053057 0-98.497733 5.897317-145.174366 0-80.17841-10.16346-50.189928-146.429114-50.189927-204.774905V156.21615c0-23.463791-7.02659-59.475064 0-82.186007 13.676755-42.661439 60.855287-32.247029 93.102316-32.247028h764.643548c33.376302 0 69.011151-8.783237 79.801985 37.642446 9.787036 41.155741 0 96.741086 0 138.649675v575.803945a18.821223 18.821223 0 0 0 37.642446 0c0-235.767185 9.787036-473.667443 0-709.183678C1013.3581-13.80223 915.98964 4.140669 845.221842 4.140669H387.866126c-102.638402 0-210.044847-9.285137-312.306825 0C-22.311058 12.547482 5.042452 148.93861 5.042452 216.820488v662.381571c0 27.102561-5.395417 62.73741 3.262346 89.087121C25.243898 1020.61218 76.814049 1016.346036 120.479286 1016.346036h627.374096a18.821223 18.821223 0 0 0 0-37.642446z" p-id="4621"></path><path d="M390.501097 284.074991c-6.022791 111.045215-173.531675 112.049014-173.531675 0s167.508884-111.17069 173.531675 0c1.254748 24.091165 38.897194 24.21664 37.642446 0-3.63877-67.505453-53.954172-124.345546-124.345546-124.345546a124.345546 124.345546 0 0 0-5.771842 248.440142c72.64992 3.262345 126.353143-54.205122 130.117388-124.094596 1.505698-24.21664-36.136748-24.21664-37.642446 0zM884.369986 1005.178777V769.411592a18.821223 18.821223 0 0 0-37.642446 0v235.767185a18.821223 18.821223 0 0 0 37.642446 0z" p-id="4622"></path><path d="M852.248432 756.111261l-109.414042 101.885553c-17.817424 16.562676 8.908712 43.163338 26.600661 26.600662l109.414043-101.885553c17.817424-16.562676-8.908712-43.163338-26.600662-26.600662z" p-id="4623"></path><path d="M852.248432 783.088347l109.414042 101.885553c17.69195 16.437201 44.418086-10.037986 26.600662-26.600661l-109.414042-101.885554c-17.69195-16.437201-44.418086 10.037986-26.600662 26.600662zM33.399762 687.225585L330.273184 528.123514c21.330719-11.418209 2.384022-43.916187-18.946698-32.497978L14.076639 654.727607c-21.330719 11.418209-2.384022 43.916187 18.946698 32.497978z" p-id="4624"></path><path d="M311.326486 528.123514l311.177552 143.292244c21.832619 10.037986 41.030266-22.334518 18.946698-32.497978L330.273184 495.500061c-21.832619-10.037986-41.030266 22.334518-18.946698 32.497978z" p-id="4625"></path><path d="M645.21498 668.404362l351.329494-318.078667c17.942899-16.311727-8.657763-42.786913-26.600662-26.600661l-351.329493 318.078667c-17.942899 16.311727 8.657763 42.786913 26.600661 26.600661z" p-id="4626"></path></svg>